<?xml version="1.0" encoding="utf-8"?>
<!-- Generator: Adobe Illustrator 15.1.0, SVG Export Plug-In . SVG Version: 6.00 Build 0)  -->
<!DOCTYPE svg PUBLIC "-//W3C//DTD SVG 1.1//EN" "http://www.w3.org/Graphics/SVG/1.1/DTD/svg11.dtd">
<svg version="1.1" id="Layer_1" xmlns="http://www.w3.org/2000/svg" xmlns:xlink="http://www.w3.org/1999/xlink" x="0px" y="0px"
	 width="48px" height="48px" viewBox="0 0 48 48" enable-background="new 0 0 48 48" xml:space="preserve">
<linearGradient id="SVGID_1_" gradientUnits="userSpaceOnUse" x1="24.0063" y1="44.9834" x2="24.0063" y2="1.1499" gradientTransform="matrix(1 0 0 -1 0.04 47.2148)">
	<stop  offset="0" style="stop-color:#95BFF8"/>
	<stop  offset="0.5569" style="stop-color:#84ADEF"/>
	<stop  offset="1" style="stop-color:#7CA4EB"/>
</linearGradient>
<rect x="2.092" y="2.231" fill="url(#SVGID_1_)" width="43.908" height="43.834"/>
<linearGradient id="SVGID_2_" gradientUnits="userSpaceOnUse" x1="24.0063" y1="43.1572" x2="24.0063" y2="2.9771" gradientTransform="matrix(1 0 0 -1 0.04 47.2148)">
	<stop  offset="0" style="stop-color:#E7F4FC"/>
	<stop  offset="1" style="stop-color:#DEEFFC"/>
</linearGradient>
<rect x="3.918" y="4.058" fill="url(#SVGID_2_)" width="40.256" height="40.181"/>
<linearGradient id="SVGID_3_" gradientUnits="userSpaceOnUse" x1="24.0063" y1="41.3311" x2="24.0063" y2="4.8032" gradientTransform="matrix(1 0 0 -1 0.04 47.2148)">
	<stop  offset="0" style="stop-color:#CEE9F9"/>
	<stop  offset="1" style="stop-color:#BBDFF8"/>
</linearGradient>
<rect x="5.745" y="5.884" fill="url(#SVGID_3_)" width="36.603" height="36.528"/>
<linearGradient id="SVGID_4_" gradientUnits="userSpaceOnUse" x1="23.9619" y1="36.1396" x2="23.9619" y2="9.9932" gradientTransform="matrix(1 0 0 -1 0.04 47.2148)">
	<stop  offset="0" style="stop-color:#D0813A"/>
	<stop  offset="1" style="stop-color:#AF551D"/>
</linearGradient>
<path fill="url(#SVGID_4_)" d="M26.085,11.233c-7.619-0.631-16.256,0.484-21.12,5.941c-3.813,4.277-3.387,12.441,1.022,16.156
	c5.03,4.238,11.876,4.117,18.072,3.693c3.124-0.213,6.256-0.553,9.392-0.473c7.504,0.193,11.884-3.309,12.173-11.018
	c0.294-7.885-5.449-11.564-12.611-13.223C30.919,11.828,28.556,11.438,26.085,11.233z"/>
<linearGradient id="SVGID_5_" gradientUnits="userSpaceOnUse" x1="1.3271" y1="23.0664" x2="46.5947" y2="23.0664" gradientTransform="matrix(1 0 0 -1 0.04 47.2148)">
	<stop  offset="0" style="stop-color:#8D470D"/>
	<stop  offset="1" style="stop-color:#7C3D09"/>
</linearGradient>
<path fill="url(#SVGID_5_)" d="M19.197,38.222c-3.844,0-9.463-0.428-13.854-4.125c-2.257-1.9-3.692-4.965-3.938-8.402
	c-0.253-3.547,0.771-6.896,2.813-9.186c4.741-5.318,12.469-6.434,18.117-6.434c1.248,0,2.537,0.055,3.833,0.162
	c2.358,0.195,4.804,0.576,7.069,1.101c9.154,2.119,13.658,6.907,13.386,14.233c-0.294,7.844-4.647,11.988-12.59,11.988
	c0,0,0,0-0.001,0c-0.199,0-0.402-0.002-0.606-0.008c-2.366-0.066-4.782,0.125-7.127,0.309c-0.725,0.057-1.448,0.111-2.171,0.162
	C22.681,38.122,20.963,38.222,19.197,38.222z M22.335,12.075c-5.239,0-12.376,1-16.624,5.765C4.052,19.7,3.188,22.584,3.4,25.552
	c0.207,2.902,1.385,5.459,3.23,7.016c3.001,2.527,6.877,3.654,12.565,3.654c1.707,0,3.381-0.1,4.795-0.195
	c0.716-0.049,1.434-0.104,2.152-0.16c2.394-0.186,4.877-0.371,7.334-0.313c7.256,0.193,10.887-3.104,11.147-10.057
	c0.235-6.316-3.638-10.313-11.839-12.21c-2.174-0.503-4.52-0.868-6.784-1.056C24.763,12.128,23.528,12.075,22.335,12.075z"/>
<path fill="#91451A" d="M37.974,19.211c-0.836,1.088-1.033,2.812-1.414,4.021c-1.463,4.643-6.721,6.693-11.076,7.441
	c-2.486,0.43-5.109,0.516-7.619,0.23c-1.313-0.152-8.053-4.037-7.196-0.148c0.837,3.799,5.775,4.098,8.831,4.221
	c8.871,0.357,26.142,1.498,23.603-12.438c-0.252-1.387-2.021-5.139-4.203-4.094C38.521,18.627,38.219,18.892,37.974,19.211z"/>
<path fill="#91451A" d="M10.593,21.142c0.949,0.326,1.012,2.211,1.929,2.732c1.171,0.668,3.108,0.066,3.384-1.258
	C14.054,22.81,12.293,21.728,10.593,21.142z"/>
<path fill="#91451A" d="M24.002,24.124c2.253,0.98,6.11-3.079,7.808-4.171c-0.164,0.233-0.437,0.491-0.541,0.76
	c-0.453,1.149-0.535,2.726-1.404,3.669C28.155,26.239,25.935,24.964,24.002,24.124z"/>
<path fill="#91451A" d="M23.995,15.327c0.14-0.079-2.003-1.393-2.269-1.465c-1.527-0.412-3.673-0.063-4.722,1.207
	c-0.467,0.566-0.455,1.49-0.269,2.152C18.866,15.392,21.738,16.606,23.995,15.327z"/>
</svg>
