<?xml version="1.0" encoding="utf-8"?>
<!-- Generator: Adobe Illustrator 16.0.0, SVG Export Plug-In . SVG Version: 6.00 Build 0)  -->
<!DOCTYPE svg PUBLIC "-//W3C//DTD SVG 1.1//EN" "http://www.w3.org/Graphics/SVG/1.1/DTD/svg11.dtd">
<svg version="1.1" id="Layer_1" xmlns="http://www.w3.org/2000/svg" xmlns:xlink="http://www.w3.org/1999/xlink" x="0px" y="0px"
	 width="36px" height="36px" viewBox="-1050.5 1783.5 36 36" enable-background="new -1050.5 1783.5 36 36" xml:space="preserve">
<path fill="#F42941" d="M-1042.252,1791.292c3.408-1.256,6.618-0.879,9.761,0.891c2.659-1.558,5.528-1.938,8.553-1.4
	c3.763,0.669,6.38,3.161,6.898,6.923c0.24,1.733,0.248,3.551,0.02,5.285c-0.231,1.761-1.761,2.724-3.527,2.629
	c-1.741-0.091-3.035-1.251-3.261-3.012c-0.102-0.797-0.031-1.616-0.099-2.421c-0.125-1.491-1.119-2.451-2.487-2.463
	c-1.378-0.012-2.371,0.929-2.505,2.433c-0.073,0.805-0.008,1.622-0.104,2.423c-0.209,1.765-1.492,2.94-3.23,3.04
	c-1.822,0.104-3.273-0.948-3.624-2.754c-0.173-0.891-0.137-1.82-0.215-2.73c-0.13-1.525-1.077-2.433-2.49-2.41
	c-1.411,0.023-2.384,0.958-2.417,2.486c-0.052,2.426-0.012,4.854-0.021,7.28c-0.002,0.591,0.012,1.192-0.081,1.774
	c-0.302,1.907-1.735,3.184-3.504,3.181c-1.917-0.001-3.42-1.26-3.464-3.324c-0.11-5.12-0.142-10.246-0.009-15.365
	C-1047.986,1790.968-1045.261,1789.858-1042.252,1791.292z"/>
</svg>
