<?xml version="1.0" encoding="utf-8"?>
<!-- Generator: Adobe Illustrator 15.1.0, SVG Export Plug-In . SVG Version: 6.00 Build 0)  -->
<!DOCTYPE svg PUBLIC "-//W3C//DTD SVG 1.1//EN" "http://www.w3.org/Graphics/SVG/1.1/DTD/svg11.dtd">
<svg version="1.1" id="Layer_1" xmlns="http://www.w3.org/2000/svg" xmlns:xlink="http://www.w3.org/1999/xlink" x="0px" y="0px"
	 width="48px" height="48px" viewBox="0 0 48 48" enable-background="new 0 0 48 48" xml:space="preserve">
<linearGradient id="SVGID_1_" gradientUnits="userSpaceOnUse" x1="24.0054" y1="45.4834" x2="24.0054" y2="1.6499" gradientTransform="matrix(1 0 0 -1 0.04 47.2148)">
	<stop  offset="0" style="stop-color:#95BFF8"/>
	<stop  offset="0.5569" style="stop-color:#84ADEF"/>
	<stop  offset="1" style="stop-color:#7CA4EB"/>
</linearGradient>
<rect x="2.091" y="1.731" fill="url(#SVGID_1_)" width="43.908" height="43.834"/>
<linearGradient id="SVGID_2_" gradientUnits="userSpaceOnUse" x1="24.0054" y1="43.6572" x2="24.0054" y2="3.4771" gradientTransform="matrix(1 0 0 -1 0.04 47.2148)">
	<stop  offset="0" style="stop-color:#E7F4FC"/>
	<stop  offset="1" style="stop-color:#DEEFFC"/>
</linearGradient>
<rect x="3.917" y="3.558" fill="url(#SVGID_2_)" width="40.256" height="40.181"/>
<linearGradient id="SVGID_3_" gradientUnits="userSpaceOnUse" x1="24.0054" y1="41.8311" x2="24.0054" y2="5.3032" gradientTransform="matrix(1 0 0 -1 0.04 47.2148)">
	<stop  offset="0" style="stop-color:#CEE9F9"/>
	<stop  offset="1" style="stop-color:#BBDFF8"/>
</linearGradient>
<rect x="5.743" y="5.384" fill="url(#SVGID_3_)" width="36.604" height="36.528"/>
<g>
	<g>
		<linearGradient id="SVGID_4_" gradientUnits="userSpaceOnUse" x1="8.521" y1="24.7666" x2="39.4795" y2="24.7666">
			<stop  offset="0" style="stop-color:#506DA3"/>
			<stop  offset="1" style="stop-color:#405680"/>
		</linearGradient>
		<path fill="url(#SVGID_4_)" d="M39.479,13.407v0.605c-0.578,0-1.047,0.104-1.408,0.312c-0.36,0.208-0.704,0.596-1.032,1.163
			c-0.219,0.382-0.563,1.294-1.032,2.735l-6.191,17.903H29.16l-5.062-14.2l-5.029,14.2h-0.59l-6.601-18.443
			c-0.492-1.376-0.803-2.19-0.934-2.44c-0.219-0.415-0.516-0.724-0.893-0.925c-0.376-0.202-0.887-0.303-1.531-0.303v-0.605h8.223
			v0.605h-0.393c-0.579,0-1.022,0.131-1.327,0.393c-0.306,0.263-0.458,0.579-0.458,0.95c0,0.383,0.241,1.261,0.72,2.638L19.66,30.46
			l3.686-10.598l-0.656-1.868l-0.524-1.49c-0.229-0.546-0.486-1.026-0.77-1.442c-0.143-0.208-0.316-0.382-0.524-0.524
			c-0.274-0.196-0.546-0.338-0.819-0.426c-0.208-0.066-0.536-0.099-0.983-0.099v-0.605h8.649v0.605h-0.59
			c-0.612,0-1.06,0.131-1.344,0.393c-0.284,0.263-0.425,0.617-0.425,1.065c0,0.558,0.245,1.528,0.736,2.916l4.261,12.072
			l4.225-12.236c0.48-1.354,0.721-2.293,0.721-2.818c0-0.251-0.08-0.486-0.238-0.705c-0.158-0.218-0.357-0.371-0.597-0.458
			c-0.416-0.153-0.957-0.23-1.622-0.23v-0.605H39.479z"/>
	</g>
</g>
</svg>
